<svg width="468" height="640" viewBox="0 0 468 640" fill="none" xmlns="http://www.w3.org/2000/svg">
<path d="M267.877 354L188.737 334.65C78.8169 306.51 23.4169 255.51 23.4169 166.69C23.4169 77.87 106.947 0.5 230.057 0.5C341.737 0.5 438.467 59.42 449.017 180.77H370.757C364.597 106.02 308.317 67.33 230.057 67.33C137.727 67.33 99.0269 116.57 99.0269 165.82C99.0269 219.46 133.327 248.48 213.347 267.83L295.127 287.18C408.567 315.32 467.487 370.72 467.487 458.66C467.487 558.91 377.787 638.93 242.367 638.93C99.9069 638.93 9.33687 557.15 0.536865 433.16H77.0469C87.5969 526.37 154.427 572.1 242.367 572.1C325.027 572.1 391.857 531.65 391.857 464.82C391.857 403.27 354.927 375.13 267.867 354.02L267.877 354Z" fill="#BCBCBC" stroke="black" stroke-miterlimit="10"/>
</svg>
